<?xml version="1.0" encoding="utf-8"?>
<!-- Generator: Adobe Illustrator 21.1.0, SVG Export Plug-In . SVG Version: 6.00 Build 0)  -->
<svg version="1.1" id="Layer_1" xmlns="http://www.w3.org/2000/svg" xmlns:xlink="http://www.w3.org/1999/xlink" x="0px" y="0px"
	 viewBox="0 0 712 220" style="enable-background:new 0 0 712 220;" xml:space="preserve">
<style type="text/css">
	.st0{fill:#03214F;}
	.st1{fill:#1FBAED;}
</style>
<g>
	<path class="st0" d="M257,67.3c-9,0-16.4,7.3-16.4,16.4v117.7c0,2.4,1.9,4.3,4.3,4.3h24.2c2.4,0,4.3-1.9,4.3-4.3V83.7
		C273.4,74.6,266.1,67.3,257,67.3"/>
	<path class="st0" d="M169.4,67.4c-20.1,0-34,8.3-44.3,24.2c-13.7-32.4-60.4-31.7-79.8-1.9C42.3,77,31,67.6,17.5,67.6h-4.1
		c0,25.1,0,104.8,0,133.8c0,2.4,1.9,4.3,4.3,4.3h24.2c2.4,0,4.3-1.9,4.3-4.3V130c0-18,8.6-35.4,26.4-35.4
		c16.6,0,24.6,10.6,24.6,32.4v74.3c0,2.4,1.9,4.3,4.3,4.3h24.2c2.4,0,4.3-1.9,4.3-4.3V130c0-17.1,9.6-35.4,26.4-35.4
		c20.7,0,24.9,14,24.9,35v71.8c0,2.4,1.9,4.3,4.3,4.3h24.3c2.4,0,4.3-1.9,4.3-4.3v-78.8C214.1,89.2,202.3,67.4,169.4,67.4"/>
	<path class="st0" d="M329.5,73.5c-5.7-7.7-16.9-8.9-24.2-2.3c-6.3,5.8-6.8,15.6-1.7,22.5l32.9,44.1l-33.1,44.5
		c-5.1,6.9-4.7,16.7,1.7,22.5c7.3,6.6,18.5,5.4,24.2-2.3l46.2-62.1c1.1-1.5,1.1-3.6,0-5.1L329.5,73.5z"/>
	<path class="st1" d="M430.9,73.5c5.7-7.7,16.9-8.9,24.2-2.3c6.3,5.8,6.8,15.6,1.7,22.5l-32.9,44.1l33.1,44.5
		c5.1,6.9,4.7,16.7-1.7,22.5c-7.3,6.6-18.5,5.4-24.2-2.3L385,140.3c-1.1-1.5-1.1-3.6,0-5.1L430.9,73.5z"/>
	<path class="st1" d="M519,102.2c5.7-5.7,12.4-8.6,20.1-8.6c8.4,0,15,2.6,19.7,7.8c4.4,5,6.8,12.2,7,21.6h-57.3
		C510.1,114.6,513.7,107.6,519,102.2 M572.1,180.2c-1-1.3-2.7-1.8-4.2-1.3c0,0,0,0,0,0c-17.1,5.9-56.6,9.4-59.5-30.6h75.6
		c8.1,0,14.6-6.5,14.6-14.6c0-18.1-3.3-35.6-15.6-49.1c-30.1-33.3-108.2-20.7-108.2,54.8c0,78.3,73.2,76.6,106.4,61.4
		c2.5-1.1,3.2-4.3,1.6-6.4L572.1,180.2z"/>
	<path class="st1" d="M697.5,69.4L697.5,69.4c-5.8-1.6-15.2-1.2-18.2-0.6c-11.7,3.5-20.3,11.5-25.5,23.6
		c-1.8-14-13.8-24.8-28.3-24.8h-4.2c0,25.1,0,104.9,0,133.8c0,2.4,1.9,4.3,4.3,4.3h24.2c2.4,0,4.3-1.9,4.3-4.3v-64.8
		c0-26.8,15.1-45.6,40.7-36.1c2.8,1,5.8-1,5.8-4V73.6C700.7,71.7,699.3,69.9,697.5,69.4"/>
	<path class="st0" d="M239.5,26.5c0,9.7,7.9,17.5,17.6,17.5s17.5-7.9,17.5-17.5S266.7,9,257,9S239.5,16.9,239.5,26.5"/>
</g>
</svg>
